<?xml version="1.0" encoding="utf-8"?>
<!-- Generator: Adobe Illustrator 26.0.1, SVG Export Plug-In . SVG Version: 6.00 Build 0)  -->
<svg version="1.1" id="OBJECTS_00000112595696678106898050000010094561018251487363_"
	 xmlns="http://www.w3.org/2000/svg" xmlns:xlink="http://www.w3.org/1999/xlink" x="0px" y="0px" viewBox="0 0 318.4 266.1"
	 style="enable-background:new 0 0 318.4 266.1;" xml:space="preserve">
<style type="text/css">
	.st0{opacity:0.4;enable-background:new    ;}
	.st1{fill:#502A29;}
	.st2{opacity:0.5;enable-background:new    ;}
	.st3{opacity:0.4;fill:#502A29;enable-background:new    ;}
	.st4{fill:#FFBB00;}
	.st5{fill:#190E06;}
	.st6{fill:#FFFFFF;}
	.st7{fill:#ECF1F7;}
	.st8{fill:#FFDF8F;}
	.st9{fill:#664646;}
	.st10{opacity:0.5;fill:#502A29;}
	.st11{opacity:0.33;fill:#AF9CDA;enable-background:new    ;}
	.st12{opacity:0.7;fill:#FFFFFF;}
	.st13{font-family:'Roboto-Black', arial;font-weight: 600}
	.st14{font-size:6.8135px;}
	.st15{fill:#F7A9B4;}
	.st16{fill:#C18E0E;}
	.st17{opacity:0.29;fill:#243762;enable-background:new    ;}
	.st18{fill:none;}
	.st19{fill:#243762;}
	.st20{opacity:0.35;fill:#ECF1F7;enable-background:new    ;}
</style>
<g id="big_buble" class="st0">
	<path class="st1" d="M318.3,169.8c0.3-5.2,0.2-10.4-0.4-15.6c-2.8-24.3-15.2-47.2-33.6-63.4c-6.5-5.8-14-10.9-18.3-18.5
		c-7.2-12.8-6.6-27.6-15.5-40.2c-9-12.8-21.8-22.5-36.6-27.6c-43.7-15.1-104.9,9.5-99.3,62.1c0,0.2,0,0.5,0.1,0.8
		c0.7,10.6-7.3,19.7-17.9,20.4c-0.3,0-0.6,0-0.9,0c-40.3,0.9-75,32-82.4,71.4c-4.8,25.3,3,53.1,21.6,71
		c13.8,13.4,32.4,20.7,50.9,25.8c37.2,10.1,76.4,12.2,114.7,8.4c35.9-3.6,73.8-13.9,97-41.6C310,207.7,317.2,189.2,318.3,169.8z"/>
</g>
<g id="big_middle_buble" class="st2">
	<path class="st1" d="M285.1,172.3c0.2-4.1,0.1-8.2-0.3-12.2c-2.4-19.2-11.7-36.9-26.3-49.7c-5.1-4.5-11-8.6-14.3-14.5
		c-5.6-10-5.2-21.6-12.2-31.5c-7.1-10-17.1-17.6-28.6-21.7c-34.2-11.9-82.2,7.5-77.8,48.7c0,0.1,0,0.4,0,0.6c0.6,8.3-5.7,15.4-14,16
		c-0.2,0-0.5,0-0.7,0c-31.6,0.8-58.8,25.1-64.6,55.9c-3.7,19.8,2.4,41.6,16.9,55.6c10.8,10.4,25.4,16.2,39.9,20.2
		c29.1,7.9,59.8,9.6,89.9,6.6c28.1-2.8,57.8-10.9,76-32.6C278.6,202,284.3,187.5,285.1,172.3z"/>
</g>
<g id="Buls">
	<circle id="_x33_" style="--delay: 1000ms" class="st3" cx="14.8" cy="247.4" r="14.8"/>
	<ellipse id="_x32_" style="--delay: 1500ms" transform="matrix(0.2307 -0.973 0.973 0.2307 192.3903 321.8839)" class="st3" cx="299.8" cy="39.3" rx="9.9" ry="9.9"/>
	<circle id="_x31_" style="--delay: 500ms" class="st3" cx="83.2" cy="27.8" r="11.4"/>
	<style>
		#_x31_, #_x32_, #_x33_{
			animation-delay: var(--delay, 250ms);
			animation: buls 60s  linear infinite;
			transform-origin: center center;
		}
		@keyframes buls {
			0%{
				rotate: 0deg;
				opacity: 1;
				scale: 1;
			};
			30%{
				opacity: 0.5;
				scale: 0.5;
			};
			50%{
				opacity: 0.2;
				scale: 0.8;
			};
			100%{
				rotate: 360deg;
				opacity: 1;
				scale: 1;
				transform-origin: center center;
			};
        }
	</style>
</g>
<g id="clock">
	<circle class="st4" cx="131.3" cy="78.6" r="52.3"/>
	<path class="st5" d="M167.6,116.3c-0.1,0-0.3-0.1-0.4-0.2c-0.2-0.2-0.2-0.5,0-0.7c0,0,0,0,0,0c20.8-19.7,21.7-52.5,2.1-73.3
		s-52.5-21.7-73.3-2.1c-0.7,0.7-1.4,1.3-2.1,2.1c-0.2,0.2-0.5,0.2-0.7,0s-0.2-0.5,0-0.7c20.4-20.8,53.9-21.1,74.7-0.7
		s21.1,53.9,0.7,74.7c-0.2,0.2-0.4,0.4-0.7,0.7C167.9,116.3,167.7,116.3,167.6,116.3z"/>
	<circle class="st6" cx="131.3" cy="78.6" r="39.8"/>
	<path class="st5" d="M131.3,118.9c-22.3,0-40.3-18-40.3-40.3s18-40.3,40.3-40.3c0,0,0,0,0,0c0.3,0,0.5,0.2,0.5,0.5
		s-0.2,0.5-0.5,0.5c-21.7,0-39.3,17.6-39.3,39.3s17.6,39.3,39.3,39.3c0,0,0,0,0,0c0.3,0,0.5,0.2,0.5,0.5
		C131.8,118.7,131.5,118.9,131.3,118.9z"/>
	<path class="st5" d="M141.6,86.2h-10.8c-2.2,0-4-1.8-4-4v-15c0-1.9,1.6-3.5,3.5-3.5s3.5,1.6,3.5,3.5v12h7.9c1.9,0,3.5,1.6,3.5,3.5
		S143.5,86.2,141.6,86.2L141.6,86.2z"/>
		<style>
			#clock{
				animation: clock 20s ease-in-out infinite;
			}
			@keyframes clock {
				0%, 100%{
					transform-origin: center center;
					transform: translate(0px, 0px);
				};
				50%{
					transform: translate(-20px, -20px);
				};
			}
		</style>
</g>
<g id="Phone">
	<path class="st5" d="M50,96.8l56.4,56.4c11,11,28.9,11,39.9,0c0,0,0,0,0,0l6.7-6.7c2.5-2.5,2.6-6.6,0-9.2c0,0,0,0,0,0l-23-23
		c-2.5-2.5-6.7-2.5-9.2,0l-11.5,11.5c-0.9,0.9-2.3,0.9-3.2,0c0,0,0,0,0,0L78.2,97.8c-0.9-0.9-0.9-2.3,0-3.2l11.3-11.3
		c2.5-2.5,2.6-6.6,0-9.2c0,0,0,0,0,0L65.9,50.4c-2.5-2.5-6.6-2.5-9.1-0.1l-6.4,6.2c-11.2,10.8-11.5,28.7-0.7,39.9
		C49.8,96.6,49.9,96.7,50,96.8z"/>
	<path class="st7" d="M51.8,57.6l31.7,31.7l1.1-1.1l5-5c2.5-2.5,2.6-6.6,0-9.2c0,0,0,0,0,0L65.9,50.4c-2.5-2.5-6.6-2.5-9.1-0.1
		l-6.4,6.2L51.8,57.6z"/>
	<path class="st5" d="M83.5,90l-32-32l-1.8-1.5l6.8-6.5c2.8-2.7,7.1-2.6,9.8,0.1l23.6,23.6c2.7,2.7,2.7,7.2,0,9.9c0,0,0,0,0,0
		L83.5,90z M51.1,56.5l1,0.8l31.3,31.3l5.7-5.7c2.3-2.3,2.4-6.1,0-8.5c0,0,0,0,0,0L65.6,50.8c-2.3-2.3-6.1-2.4-8.4-0.1L51.1,56.5z"
		/>
	<path class="st7" d="M116.2,121l31.7,31.7l1.1-1.1l5-5c2.5-2.5,2.5-6.7,0-9.2l-23.6-23.6c-2.5-2.5-6.6-2.5-9.1-0.1l-6.4,6.2
		L116.2,121z"/>
	<path class="st5" d="M147.9,153.4l-32-32l-1.8-1.5l6.8-6.6c2.8-2.6,7.1-2.6,9.8,0.1l23.6,23.6c2.7,2.7,2.8,7.2,0,9.9c0,0,0,0,0,0
		L147.9,153.4z M115.6,119.8l1,0.8l31.3,31.4l5.7-5.7c2.3-2.3,2.4-6.1,0-8.5c0,0,0,0,0,0L130,114.1c-2.3-2.3-6.1-2.3-8.4-0.1
		L115.6,119.8z"/>
	<path class="st5" d="M73.5,73.7c-0.1,0-0.3-0.1-0.3-0.1L53.9,54.3c-0.2-0.2-0.2-0.5,0-0.7s0.5-0.2,0.7,0l19.3,19.3
		c0.2,0.2,0.2,0.5,0,0.7C73.8,73.6,73.6,73.7,73.5,73.7z"/>
	<path class="st5" d="M150.3,150.5c-0.1,0-0.3,0-0.4-0.1L130.6,131c-0.2-0.2-0.2-0.5,0-0.7c0,0,0,0,0,0c0.2-0.2,0.5-0.2,0.7,0
		l19.3,19.3c0.2,0.2,0.2,0.5,0,0.7C150.5,150.4,150.4,150.5,150.3,150.5z"/>
		<style>
			#Phone{
				transform-origin: center center;
				animation: phone 10s ease-in-out infinite;
			}
			@keyframes phone {
				0%, 100%{
					transform: rotate(0deg);
				};
				50%{
					transform: rotate(5deg);
				};
			}
		</style>
</g>
<g id="smartphone">
	<path class="st5" d="M235,249.1l-73.9-10.9c-8.4-1.2-14.1-9-12.9-17.4l26.5-179.2c1.2-8.4,9-14.1,17.4-12.9L266,39.7
		c8.4,1.2,14.1,9,12.9,17.4l-26.5,179.2C251.2,244.6,243.4,250.4,235,249.1C235,249.1,235,249.1,235,249.1z"/>
	
		<rect x="128.3" y="90.5" transform="matrix(0.1463 -0.9892 0.9892 0.1463 47.1417 328.3728)" class="st7" width="171.1" height="92.8"/>
	
		<rect x="219" y="12.2" transform="matrix(0.1463 -0.9892 0.9892 0.1463 134.4297 273.0019)" class="st1" width="12.8" height="92.8"/>
	<path class="st7" d="M199.8,238c-0.3,0-0.6,0-0.9-0.1c-3.2-0.5-5.5-3.5-5-6.8s3.5-5.5,6.8-5s5.5,3.5,5,6.8
		C205.2,235.9,202.7,238,199.8,238z M199.8,227c-2.8,0-5,2.2-5,5c0,2.8,2.2,5,5,5c2.5,0,4.6-1.8,5-4.3c0.4-2.7-1.5-5.2-4.2-5.7
		C200.3,227,200,227,199.8,227L199.8,227z"/>
	<path class="st7" d="M213,43.9c-0.1,0-0.2,0-0.3,0c-1-0.1-1.8-1.1-1.6-2.2c0,0,0,0,0,0c0.1-0.5,0.4-1,0.8-1.3
		c0.4-0.3,0.9-0.4,1.4-0.3c1,0.2,1.8,1.1,1.6,2.2c0,0,0,0,0,0l0,0C214.8,43.2,213.9,43.9,213,43.9z M213,41c-0.4,0-0.8,0.3-0.9,0.8
		c0,0.2,0,0.5,0.2,0.7c0.2,0.2,0.4,0.3,0.6,0.4c0.2,0,0.5,0,0.7-0.2c0.2-0.1,0.3-0.4,0.4-0.6l0,0c0-0.2,0-0.5-0.2-0.7
		c-0.1-0.2-0.4-0.3-0.6-0.4L213,41z"/>
	<path class="st7" d="M242.8,48.3c-0.1,0-0.2,0-0.3,0l-23.4-3.5c-0.5-0.1-1-0.3-1.3-0.8c-0.3-0.4-0.4-0.9-0.4-1.4
		c0.2-1.1,1.1-1.8,2.2-1.6c0,0,0,0,0,0l23.4,3.5c0.5,0.1,1,0.3,1.3,0.8c0.3,0.4,0.4,0.9,0.4,1.4c-0.1,0.5-0.3,0.9-0.7,1.3
		C243.7,48.2,243.2,48.3,242.8,48.3z M219.4,42c-0.5,0-0.9,0.3-0.9,0.8c0,0.2,0,0.5,0.2,0.7c0.1,0.2,0.4,0.3,0.6,0.4l23.4,3.5
		c0.5,0.1,0.9-0.3,1-0.8c0-0.2,0-0.5-0.2-0.7c-0.1-0.2-0.4-0.3-0.6-0.4L219.5,42H219.4z"/>
	<path class="st8" d="M247.6,176.5l-64-9.5c-1-0.1-2,0.6-2.2,1.6l-2.5,16.6c-0.2,1,0.6,2,1.6,2.2c0,0,0,0,0,0l54.7,8.1l5.6,7.8
		l1-6.8l2.6,0.4c1,0.1,2-0.6,2.2-1.6l2.4-16.6C249.3,177.6,248.6,176.7,247.6,176.5C247.6,176.5,247.6,176.5,247.6,176.5z"/>
	<path class="st1" d="M235.3,196L235.3,196l-54.8-8.1c-0.6-0.1-1.2-0.4-1.6-0.9c-0.4-0.5-0.5-1.2-0.4-1.8l2.4-16.6
		c0.2-1.3,1.4-2.2,2.7-2l14.8,2.2c0.3,0,0.5,0.3,0.4,0.6s-0.3,0.5-0.6,0.4l-14.8-2.2c-0.8-0.1-1.5,0.4-1.6,1.2l-2.5,16.6
		c0,0.4,0.1,0.7,0.3,1c0.2,0.3,0.6,0.5,0.9,0.6l54.7,8.1c0.3,0,0.5,0.3,0.5,0.5S235.5,196,235.3,196L235.3,196z"/>
	<path class="st8" d="M257.7,107.7l-64-9.5c-1-0.1-2,0.6-2.2,1.6l-2.4,16.6c-0.2,1,0.6,2,1.6,2.2c0,0,0,0,0,0l54.7,8.1l5.6,7.8
		l1-6.8l2.6,0.4c1,0.1,2-0.6,2.2-1.6l2.5-16.6C259.5,108.8,258.8,107.9,257.7,107.7z"/>
	<path class="st1" d="M251.4,135.8l-6.2-8.6l-54.5-8.1c-1.3-0.2-2.2-1.4-2-2.7c0-0.3,0.3-0.5,0.6-0.4c0.3,0,0.5,0.3,0.4,0.6
		c0,0,0,0,0,0c-0.1,0.8,0.4,1.5,1.2,1.6c0,0,0,0,0,0l54.9,8.1l5.1,7l0.9-6.1l3.1,0.5c0.4,0,0.7,0,1-0.3c0.3-0.2,0.5-0.6,0.6-0.9
		l1.6-11c0-0.3,0.3-0.5,0.6-0.4c0.3,0,0.5,0.3,0.4,0.6c0,0,0,0,0,0l-1.6,11c-0.2,1.3-1.4,2.2-2.7,2l-2.1-0.3L251.4,135.8z"/>
	<path class="st9" d="M176.7,129.1l64,9.5c1,0.2,1.8,1.1,1.6,2.2l-2.5,16.6c-0.2,1-1.1,1.8-2.2,1.6l-54.7-8.1l-7.6,5.8l1-6.8
		l-2.6-0.4c-1-0.2-1.8-1.1-1.6-2.2c0,0,0,0,0,0l2.4-16.6C174.7,129.7,175.7,128.9,176.7,129.1z"/>
	<path class="st1" d="M238,159.5h-0.4l-34.2-5.1c-0.3,0-0.5-0.3-0.4-0.6c0-0.3,0.3-0.5,0.6-0.4l34.2,5.1c0.4,0,0.7-0.1,1-0.3
		c0.3-0.2,0.5-0.6,0.6-0.9l2.4-16.6c0.1-0.8-0.4-1.5-1.2-1.6c0,0,0,0,0,0c-0.3,0-0.5-0.3-0.4-0.5c0,0,0,0,0,0c0-0.3,0.3-0.5,0.6-0.4
		c1.3,0.2,2.2,1.4,2,2.7l-2.4,16.6c-0.1,0.6-0.4,1.2-0.9,1.6C239,159.3,238.5,159.4,238,159.5z"/>
	
		<rect x="194.6" y="167.3" transform="matrix(0.1463 -0.9892 0.9892 0.1463 -38.5475 382.7198)" class="st6" width="15.7" height="92.8"/>
	<path class="st10" d="M171.3,209c-0.5,3-3.3,5.2-6.3,4.7s-5.2-3.3-4.7-6.3c0.5-3,3.3-5.2,6.3-4.7C169.6,203.1,171.7,206,171.3,209
		C171.3,209,171.3,209,171.3,209z"/>
	<path class="st11" d="M239,224.1c-0.2,0-0.5,0-0.7,0l-59.4-8.8c-1.3-0.2-2.5-0.9-3.3-1.9c-1.6-2.2-1.1-5.4,1.1-7
		c1-0.8,2.3-1.1,3.6-0.9l59.5,8.8c2.7,0.6,4.4,3.2,3.9,5.9C243.2,222.4,241.3,224,239,224.1L239,224.1z M238.4,223.1
		c2.1,0.6,4.3-0.7,4.9-2.9c0.6-2.1-0.7-4.3-2.9-4.9c-0.3-0.1-0.6-0.1-0.8-0.1l-59.5-8.8c-2.2-0.3-4.2,1.3-4.5,3.4
		c-0.1,1,0.1,2,0.7,2.9c0.6,0.8,1.6,1.4,2.6,1.6L238.4,223.1z"/>
	<path class="st6" d="M186.2,54.6h-0.3c-1.1-0.2-1.8-1.3-1.6-2.3c0.1-0.5,0.3-0.9,0.7-1.2c0.4-0.3,0.9-0.4,1.5-0.4
		c1.1,0.2,1.8,1.2,1.6,2.3l0,0C187.9,53.9,187.1,54.6,186.2,54.6z M186.2,51.7c-0.6,0-1,0.5-0.9,1.1c0,0.2,0.1,0.3,0.2,0.5
		c0.4,0.4,1,0.5,1.4,0.1c0.2-0.1,0.3-0.3,0.3-0.5l0,0c0-0.3,0-0.5-0.2-0.7c-0.1-0.2-0.4-0.3-0.6-0.4L186.2,51.7z"/>
	<path class="st6" d="M191.6,55.4h-0.3c-1.1-0.1-1.9-1.2-1.7-2.2c0.1-1.1,1.2-1.9,2.2-1.7s1.9,1.2,1.7,2.2c-0.1,0.5-0.4,1-0.8,1.3
		C192.4,55.3,192,55.4,191.6,55.4z M191.6,52.5c-0.5,0-0.9,0.4-0.9,0.8c0,0.2,0,0.5,0.2,0.7c0.2,0.2,0.4,0.3,0.6,0.4
		c0.3,0,0.5,0,0.7-0.2c0.2-0.2,0.3-0.4,0.4-0.6l0,0c0-0.3,0-0.5-0.2-0.7c-0.1-0.2-0.4-0.3-0.6-0.4L191.6,52.5z"/>
	<path class="st6" d="M196.9,56.2c-0.1,0-0.2,0-0.3,0c-1.1-0.1-1.9-1-1.9-2.1c0.1-1.1,1-1.9,2.1-1.9s1.9,1,1.9,2.1
		C198.7,55.3,197.9,56.1,196.9,56.2z M196.9,53.3c-0.2,0-0.4,0.1-0.6,0.2c-0.2,0.1-0.3,0.4-0.4,0.6c0,0.2,0,0.5,0.2,0.7
		c0.3,0.5,0.9,0.6,1.4,0.3c0.5-0.3,0.6-0.9,0.3-1.4c-0.2-0.3-0.5-0.5-0.8-0.5L196.9,53.3z"/>
	<path class="st5" d="M271.6,72.4L271.6,72.4l-85-12.6c-0.3,0-0.5-0.3-0.4-0.6c0-0.3,0.3-0.5,0.6-0.4l84.9,12.6
		c0.3,0,0.5,0.3,0.5,0.5S271.9,72.5,271.6,72.4L271.6,72.4z"/>
	<path class="st6" d="M236.2,180.3L236.2,180.3l-45.4-6.7c-0.3,0-0.5-0.3-0.4-0.6c0-0.3,0.3-0.5,0.6-0.4c0,0,0,0,0,0l45.3,6.7
		c0.3,0,0.5,0.3,0.4,0.6c0,0,0,0,0,0C236.6,180.1,236.4,180.3,236.2,180.3z"/>
	<path class="st6" d="M209.4,181.9L209.4,181.9L190,179c-0.3,0-0.5-0.3-0.4-0.6c0-0.3,0.3-0.5,0.6-0.4l19.3,2.9
		c0.3,0,0.5,0.3,0.4,0.6C209.8,181.7,209.6,181.9,209.4,181.9z"/>
	<path class="st6" d="M202.9,186.1L202.9,186.1l-13.6-2c-0.3,0-0.5-0.3-0.4-0.6s0.3-0.5,0.6-0.4l13.5,2c0.3,0,0.5,0.3,0.4,0.6
		C203.3,185.9,203.1,186.1,202.9,186.1z"/>
	<path class="st6" d="M235.4,185.7L235.4,185.7l-20-2.9c-0.3,0-0.5-0.3-0.4-0.6c0-0.3,0.3-0.5,0.5-0.4c0,0,0,0,0,0l19.9,2.9
		c0.3,0,0.5,0.3,0.5,0.5C235.9,185.6,235.6,185.8,235.4,185.7L235.4,185.7z"/>
	<path class="st6" d="M230.6,142.7L230.6,142.7l-45.4-6.7c-0.3,0-0.5-0.3-0.4-0.6s0.3-0.5,0.6-0.4l45.3,6.7c0.3,0,0.5,0.3,0.4,0.6
		C231.1,142.5,230.9,142.7,230.6,142.7z"/>
	<path class="st6" d="M203.8,144.3L203.8,144.3l-19.4-2.9c-0.3,0-0.5-0.3-0.4-0.6s0.3-0.5,0.6-0.4l19.3,2.9c0.3,0,0.5,0.3,0.5,0.5
		C204.3,144.1,204.1,144.3,203.8,144.3L203.8,144.3z"/>
	<path class="st6" d="M223.9,152.4L223.9,152.4l-39.2-6.1c-0.3,0-0.5-0.3-0.4-0.6s0.3-0.5,0.6-0.4l39.1,6.1c0.3,0,0.5,0.3,0.5,0.5
		C224.4,152.2,224.1,152.4,223.9,152.4L223.9,152.4z"/>
	<path class="st6" d="M229.8,148.1L229.8,148.1l-20-3c-0.3,0-0.5-0.3-0.4-0.6c0,0,0,0,0,0c0-0.3,0.3-0.5,0.6-0.4l19.9,2.9
		c0.3,0,0.5,0.3,0.5,0.5S230.1,148.1,229.8,148.1L229.8,148.1L229.8,148.1z"/>
	<path class="st9" d="M185,66.7l64,9.5c1,0.2,1.8,1.1,1.6,2.2l-2.5,16.6c-0.2,1-1.1,1.8-2.2,1.6l-54.7-8.1l-7.6,5.8l1-6.8l-2.6-0.4
		c-1-0.2-1.8-1.1-1.6-2.2c0,0,0,0,0,0l2.4-16.6C182.9,67.2,183.9,66.5,185,66.7C185,66.7,185,66.7,185,66.7z"/>
	<path class="st5" d="M248.1,95.4H248c-0.3,0-0.5-0.3-0.4-0.6l2.4-16.6c0.1-0.4,0-0.7-0.3-1c-0.2-0.3-0.6-0.5-0.9-0.6l-39.7-5.9
		c-0.3,0-0.5-0.3-0.4-0.6c0-0.3,0.3-0.5,0.6-0.4c0,0,0,0,0,0l39.7,5.8c0.6,0.1,1.2,0.5,1.6,1c0.4,0.5,0.6,1.2,0.4,1.8L248.6,95
		C248.6,95.2,248.3,95.4,248.1,95.4z"/>
	<path class="st6" d="M238.9,80.3L238.9,80.3l-45.4-6.7c-0.3,0-0.5-0.3-0.4-0.6c0,0,0,0,0,0c0-0.3,0.3-0.5,0.6-0.4l45.3,6.7
		c0.3,0,0.5,0.3,0.4,0.5c0,0,0,0,0,0C239.3,80.1,239.1,80.3,238.9,80.3z"/>
	<path class="st6" d="M212,81.9L212,81.9L192.7,79c-0.3,0-0.5-0.3-0.4-0.6s0.3-0.5,0.6-0.4l19.3,2.8c0.3,0,0.5,0.3,0.5,0.5
		C212.5,81.7,212.3,81.9,212,81.9L212,81.9z"/>
	<path class="st6" d="M232.1,90L232.1,90l-39.2-6.1c-0.3,0-0.5-0.3-0.4-0.6c0-0.3,0.3-0.5,0.6-0.4c0,0,0,0,0,0l39.1,6.1
		c0.3,0,0.5,0.3,0.4,0.6C232.5,89.8,232.3,90,232.1,90z"/>
	<path class="st6" d="M238.1,85.7L238.1,85.7l-20-3c-0.3,0-0.5-0.3-0.4-0.6c0-0.3,0.3-0.5,0.6-0.4l19.9,2.9c0.3,0,0.5,0.3,0.5,0.5
		S238.3,85.7,238.1,85.7L238.1,85.7z"/>
	<path class="st6" d="M246.4,112.2L246.4,112.2l-45.4-6.7c-0.3,0-0.5-0.3-0.4-0.6s0.3-0.5,0.6-0.4l45.3,6.7c0.3,0,0.5,0.3,0.5,0.5
		S246.7,112.2,246.4,112.2L246.4,112.2z"/>
	<path class="st6" d="M219.6,113.7L219.6,113.7l-19.4-2.8c-0.3,0-0.5-0.3-0.4-0.6c0-0.3,0.3-0.5,0.6-0.4c0,0,0,0,0,0l19.3,2.8
		c0.3,0,0.5,0.3,0.5,0.5C220.1,113.5,219.8,113.7,219.6,113.7L219.6,113.7z"/>
	<path class="st6" d="M213.1,117.9L213.1,117.9l-13.6-2c-0.3,0-0.5-0.3-0.4-0.6s0.3-0.5,0.6-0.4l13.5,2c0.3,0,0.5,0.3,0.5,0.5
		C213.6,117.7,213.3,117.9,213.1,117.9L213.1,117.9L213.1,117.9z"/>
	<path class="st6" d="M245.6,117.6L245.6,117.6l-20-3c-0.3,0-0.5-0.3-0.4-0.6c0-0.3,0.3-0.5,0.6-0.4l19.9,2.9c0.3,0,0.5,0.3,0.5,0.5
		S245.9,117.5,245.6,117.6L245.6,117.6z"/>
	<text transform="matrix(0.9887 0.1502 -0.1502 0.9887 205.6812 58.1383)" class="st12 st13 st14">Future Génération</text>
	<style>
			#smartphone{
				transform-origin: 60% center;
				animation: smartphone 20s ease-in-out infinite;
			}
			@keyframes smartphone {
				0%, 100%{
					transform: rotate(0deg);
				};
				50%{
					transform: rotate(10deg);
				};
			}
		</style>
</g>
<g id="Envelope">
	<g>
		<path class="st15" d="M40.4,176.2l45.2-44.7c2.7-2.7,6.9-3.1,10.1-1.1l53.8,33.4c0.1,0,0.1,0.1,0.1,0.1c0,0,0,0.1-0.1,0.1
			L40.2,176.2"/>
		<path class="st5" d="M40.2,176.7l-0.1-0.7l-0.1-0.1l0.1-0.1l0,0l45.1-44.6c2.9-2.9,7.3-3.4,10.7-1.2l53.8,33.4
			c0.2,0.1,0.3,0.4,0.3,0.6c0,0.3-0.3,0.5-0.5,0.5L40.2,176.7z M91.4,129.6c-2,0-4,0.8-5.4,2.2l-44.2,43.7l106.5-12l-52.8-32.8
			C94.2,130,92.8,129.6,91.4,129.6z"/>
		<path class="st16" d="M40.4,176.2l45.2-44.7c2.7-2.7,6.9-3.1,10.1-1.1l53.8,33.4c0.1,0,0.1,0.1,0.1,0.1c0,0,0,0.1-0.1,0.1
			L40.2,176.2"/>
		<path class="st4" d="M154.2,233.8L51.6,245.3c-2,0.2-3.8-1.1-4-3.1c0,0,0,0,0,0l-7.4-65.8c0-0.1,0.1-0.2,0.2-0.2c0,0,0,0,0,0
			l109.4-12.3c0.1,0,0.2,0,0.2,0.1c0,0,0,0,0,0l7.4,65.8C157.6,231.8,156.2,233.5,154.2,233.8C154.3,233.8,154.3,233.8,154.2,233.8z
			"/>
		<path class="st5" d="M51.2,245.9c-2.1,0-3.8-1.6-4.1-3.6l-7.4-65.8c0-0.4,0.2-0.7,0.6-0.8l109.4-12.3c0.4,0,0.7,0.2,0.8,0.6
			l7.4,65.8c0.3,2.2-1.3,4.2-3.6,4.5c0,0,0,0,0,0L51.7,245.8L51.2,245.9z M40.7,176.6l7.4,65.5c0.2,1.7,1.7,2.9,3.4,2.7l102.7-11.6
			l0.1,0.5l-0.1-0.5c0.8-0.1,1.6-0.5,2.1-1.1c0.5-0.6,0.7-1.5,0.6-2.3l-7.4-65.5L40.7,176.6z"/>
		<path class="st17" d="M149.4,233.8l-92.8,11.6c-2,0.2,28.8-39.2,28.6-41.2l-45-27.8c0-0.1,0.1-0.2,0.2-0.2c0,0,0,0,0,0l109.4-12.3
			c0.1,0,0.2,0,0.2,0.1c0,0,0,0,0,0l-37.4,37C112.8,203,151.4,233.6,149.4,233.8z"/>
	</g>
	<g id="Papier">
		<path class="st6" d="M45.9,143.8l71.5-8.1c4.7-0.5,8.9,2.3,9.3,6.4l4.6,40.8l-19.9,18.3l-26.3,3l-26-16.2l-4.5-39.5L45.9,143.8z"
			/>
		<path class="st5" d="M85,204.7l-26.3-16.5l-4.5-39.5l-6.8-5.6l69.9-7.9c2.3-0.3,4.6,0.3,6.6,1.6c1.8,1.2,3,3.1,3.3,5.3l4.6,41
			l-20.2,18.6L85,204.7z M59.7,187.6l25.6,16l25.9-2.9l19.6-18l-4.6-40.5c-0.2-1.9-1.3-3.5-2.9-4.6c-1.7-1.2-3.8-1.7-5.9-1.4
			l-69.9,7.9l7.6,4L59.7,187.6z"/>
		<path class="st7" d="M56.7,166.6L44.2,168l-2-17.8c-0.4-3.3,2-6.2,5.3-6.6l0.6-0.1c3.3-0.4,6.2,2,6.6,5.3L56.7,166.6z"/>
		<path class="st5" d="M43.8,168.6l-2.1-18.3c-0.4-3.6,2.2-6.8,5.7-7.2L48,143c3.6-0.4,6.8,2.1,7.2,5.7c0,0,0,0,0,0l2.1,18.3
			L43.8,168.6z M48.8,144c-0.2,0-0.4,0-0.6,0l-0.6,0.1c-3,0.3-5.2,3.1-4.8,6.1l2,17.3l11.5-1.3l-2-17.3c-0.2-1.4-0.9-2.8-2-3.7
			C51.2,144.4,50,144,48.8,144L48.8,144z"/>
		<path class="st5" d="M65.2,157.4c-0.3,0-0.5-0.2-0.5-0.4c0-0.3,0.2-0.5,0.4-0.5c0,0,0,0,0,0l51.8-5.8c0.3,0,0.5,0.2,0.6,0.4
			c0,0.3-0.2,0.5-0.4,0.6L65.2,157.4L65.2,157.4z"/>
		<path class="st5" d="M67.2,175c-0.3,0-0.5-0.2-0.5-0.5s0.2-0.5,0.5-0.5l51.8-5.8c0.3,0,0.5,0.2,0.6,0.4c0,0.3-0.2,0.5-0.4,0.6
			L67.2,175L67.2,175z"/>
		<path class="st5" d="M66.2,166.1c-0.3,0-0.5-0.2-0.5-0.5c0-0.3,0.2-0.5,0.5-0.5l22.4-2.5c0.3,0,0.5,0.2,0.6,0.4
			c0,0.3-0.2,0.5-0.4,0.6L66.2,166.1L66.2,166.1z"/>
		<path class="st5" d="M94.4,162.9c-0.3,0-0.5-0.2-0.5-0.4c0-0.3,0.1-0.5,0.4-0.5c0,0,0,0,0,0l23.6-2.7c0.3,0,0.5,0.2,0.6,0.4
			c0,0.3-0.2,0.5-0.4,0.6L94.4,162.9L94.4,162.9z"/>
		<path class="st5" d="M68.3,185c-0.3,0-0.5-0.2-0.5-0.4c0-0.3,0.2-0.5,0.4-0.6c0,0,0,0,0,0l22.4-2.5c0.3,0,0.5,0.2,0.6,0.4
			c0,0.3-0.2,0.5-0.4,0.6L68.3,185L68.3,185z"/>
	</g>
	<g id="corps">
		<line class="st18" x1="40.4" y1="176.3" x2="85.2" y2="204.2"/>
		
			<rect x="62.3" y="163.9" transform="matrix(0.5289 -0.8487 0.8487 0.5289 -131.8627 142.9101)" class="st5" width="1" height="52.7"/>
		<line class="st18" x1="150" y1="163.9" x2="112.6" y2="201.1"/>
		
			<rect x="104.9" y="182" transform="matrix(0.7096 -0.7046 0.7046 0.7096 -90.4797 145.4997)" class="st5" width="52.7" height="1"/>
	</g>
	<g id="couvecle-en-bas">
		<path class="st15" d="M90.6,197.3l-34,47.3l92.8-10.5l-43.7-38.6c-4.3-3.8-10.8-3.4-14.5,0.9C91,196.7,90.8,197,90.6,197.3z"/>
		<path class="st19" d="M55.5,245.2L90.2,197l0.4,0.3l-0.4-0.3c3.5-4.8,10.2-5.9,15-2.5c0.3,0.2,0.6,0.4,0.9,0.7l44.5,39.3
			L55.5,245.2z M99,193.5c-3.2,0-6.2,1.5-8,4.1L57.7,244l90.6-10.2L105.4,196C103.7,194.4,101.4,193.5,99,193.5z"/>
		<path class="st17" d="M90.6,193.2l-34,51.4l92.8-10.5l-43.7-42.6c-4.2-3.8-10.7-3.4-14.5,0.9C91,192.6,90.8,192.9,90.6,193.2z"/>
		<path class="st4" d="M90.6,197.3l-34,47.3l92.8-10.5l-43.7-38.6c-4.3-3.8-10.8-3.4-14.5,0.9C91,196.7,90.8,197,90.6,197.3z"/>
		<path class="st5" d="M55.5,245.2L90.2,197l0.4,0.3l-0.4-0.3c3.5-4.8,10.2-5.9,15-2.5c0.3,0.2,0.6,0.4,0.9,0.7l44.5,39.3
			L55.5,245.2z M99,193.5c-3.2,0-6.2,1.5-8,4.1L57.7,244l90.6-10.2L105.4,196C103.7,194.4,101.4,193.5,99,193.5z"/>
		<path class="st20" d="M93.9,207.7l-25,34.7l68.2-7.7L105,206.5c-3.1-2.7-7.9-2.4-10.7,0.7C94.2,207.4,94,207.6,93.9,207.7z"/>
	</g>
	<style>
			#Envelope{
				transform-origin: 60% 80%;
				animation: envelope 55s ease-in-out infinite;
			}
			@keyframes envelope {
				0%, 100%{
					transform: translateX(0px);
				};
				50%{
					transform: translateX(70px);
				};
			}
		</style>
</g>
</svg>
